<svg xmlns="http://www.w3.org/2000/svg" width="150" height="46" fill="none"><mask id="a" width="150" height="46" x="0" y="0" maskUnits="userSpaceOnUse" style="mask-type:luminance"><path fill="#fff" d="M.914 45.733h148.343V.268H.914v45.465Z"/></mask><g fill="#163300" mask="url(#a)"><path d="M1.072 31.975c0-2.185-.041-4.019-.157-5.654h4.068l.191 2.807h.113c.92-1.483 2.61-3.239 5.755-3.239 2.456 0 4.373 1.41 5.178 3.512h.078c.655-1.054 1.421-1.83 2.301-2.378 1.035-.74 2.226-1.134 3.763-1.134 3.103 0 6.246 2.146 6.246 8.231v11.187h-4.602V34.819c0-3.157-1.073-5.03-3.333-5.03-1.614 0-2.806 1.172-3.301 2.537-.115.467-.231 1.051-.231 1.595v11.386h-4.605V34.313c0-2.651-1.034-4.523-3.22-4.523-1.765 0-2.952 1.403-3.374 2.727-.191.471-.273 1.015-.273 1.561v11.229H1.072V31.975ZM41.937 36.03c-3.337-.08-6.52.659-6.52 3.546 0 1.869 1.19 2.73 2.686 2.73 1.876 0 3.26-1.248 3.678-2.612.116-.35.156-.742.156-1.052V36.03Zm4.602 4.716c0 1.715.078 3.385.271 4.56h-4.259l-.306-2.106h-.12c-1.148 1.482-3.103 2.533-5.518 2.533-3.76 0-5.869-2.762-5.869-5.653 0-4.795 4.178-7.21 11.083-7.171v-.312c0-1.248-.5-3.315-3.795-3.315-1.843 0-3.763.588-5.026 1.406l-.922-3.118c1.38-.86 3.8-1.681 6.753-1.681 5.984 0 7.708 3.863 7.708 7.994v6.863ZM49.802 31.975c0-2.185-.043-4.019-.154-5.654h4.138l.231 2.846h.114c.805-1.48 2.84-3.278 5.945-3.278 3.263 0 6.638 2.146 6.638 8.15v11.268h-4.72v-10.72c0-2.73-.997-4.797-3.566-4.797-1.88 0-3.181 1.362-3.682 2.806-.15.431-.192 1.017-.192 1.557v11.154h-4.752V31.975ZM82.45 34.232c0-.387-.038-.855-.114-1.245-.422-1.872-1.917-3.391-4.066-3.391-3.03 0-4.717 2.73-4.717 6.277 0 3.47 1.687 6.007 4.68 6.007 1.916 0 3.605-1.327 4.064-3.394.115-.43.154-.901.154-1.407v-2.847Zm4.718-15.54v21.272c0 1.949.078 4.056.153 5.34h-4.219l-.188-2.999h-.079c-1.112 2.102-3.38 3.428-6.1 3.428-4.448 0-7.978-3.853-7.978-9.703-.037-6.357 3.876-10.141 8.364-10.141 2.568 0 4.41 1.093 5.253 2.501h.077v-9.698h4.717ZM90.502 26.32h4.763v18.984h-4.763V26.32ZM98.596 32.444c0-2.573-.039-4.408-.155-6.12h4.106l.152 3.622h.156c.919-2.69 3.107-3.622 5.101-3.622.46 0 .729-.081 1.112 0v4.211a6.326 6.326 0 0 0-1.383-.157c-2.261 0-3.795 1.48-4.215 3.623a8.37 8.37 0 0 0-.153 1.487v9.819h-4.721V32.444ZM111.256 26.32h4.753v18.984h-4.753V26.32Z"/><path fill-rule="evenodd" d="M145.359 6.265c-2.347-2.717-4.838-1.49-6.827-.488-.833.418-3.856 2.464-6.853 3.89-2.136 1.017-5.2.71-6.881-1.4-.102-.128-2.819-3.473-3.107-3.886-1.764-2.249-6.228-4.114-11.56-1.012a3637.41 3637.41 0 0 1-12.108 7.069c-1.53.793-5.082 1.14-7.088-1.615-.033-.045-2.669-3.388-2.774-3.516-.078-.09-1.78-2.657-5.575-2.736-.559-.014-3.346-.03-6.07 1.54l-12.018 6.985c-.006 0-.006.005-.006.005-3.456 2.01-6.151 3.571-6.151 3.571l3.182 3.975c1.49 1.877 4.844 3.332 7.755 1.633 0 0 10.755-6.33 10.792-6.347 4.653-2.595 8.243-2.595 10.621-1.628 2.14.915 4 3.203 4 3.203l2.859 3.599c1.383 1.73 3.671 1.051 3.671 1.051s.845-.1 2.129-.87c0 0 10.414-6.138 10.42-6.14 3.31-1.972 6.345-2.34 7.893-2.196 4.856.45 6.365 3.897 8.473 6.301 1.239 1.418 2.356 2.219 4.067 2.178 1.126-.026 2.395-.716 2.582-.84l12.473-7.318s-1.278-1.958-3.899-5.008Z" clip-rule="evenodd"/></g></svg>