<svg width="170" height="25" viewBox="0 0 170 25" fill="none" xmlns="http://www.w3.org/2000/svg">
<path d="M159.418 22.5833C158.943 22.5833 158.442 22.4514 157.862 22.1878L157.177 24.1382C157.968 24.5337 158.732 24.6655 159.576 24.6655C161.737 24.6655 162.95 23.5849 163.82 21.1334L169.567 5.26386H167.036L163.266 16.1771L159.418 5.26386H156.755L161.975 19.367L161.605 20.3425C160.999 21.9242 160.551 22.5833 159.418 22.5833ZM150.27 6.92439C152.036 6.92439 153.328 8.13693 153.539 10.9577H146.843C147.133 8.11075 148.477 6.92439 150.27 6.92439ZM155.833 16.2037L153.934 15.0965C153.064 16.6782 151.931 17.4162 150.428 17.4162C148.425 17.4162 146.949 16.0453 146.791 12.803H155.99V11.9069C155.99 7.3989 153.697 5.00022 150.297 5.00022C146.738 5.00022 144.26 7.50459 144.26 12.1705C144.26 16.9156 146.738 19.3143 150.376 19.3143C153.038 19.3143 154.62 18.207 155.833 16.2037ZM142.204 17.0736C141.308 17.0736 140.912 16.7044 140.912 15.7817V0.571684H138.382V16.0981C138.382 17.9962 139.41 19.1035 141.65 19.1035C142.125 19.1035 142.626 19.0506 143.1 18.9188V16.9946C142.784 17.0474 142.494 17.0736 142.204 17.0736ZM124.411 19.0245H126.967V8.69074C128.048 7.53072 129.208 6.95069 130.421 6.95069C131.66 6.95069 132.556 7.71532 132.556 9.21797V19.0245H135.113V9.32321C135.113 6.47635 133.532 4.97359 131.08 4.97359C129.63 4.97359 128.233 5.47457 126.967 6.68705V5.26386H124.411V19.0245ZM112.759 15.4391C112.759 14.1476 113.497 13.225 115.869 12.6183L118.348 12.0121V15.9929C117.319 16.8628 116.159 17.469 114.973 17.469C113.471 17.469 112.759 16.5201 112.759 15.4391ZM114.525 19.2882C115.896 19.2882 117.346 18.6024 118.505 17.6269C118.875 18.629 119.745 19.1035 121.142 19.1035C121.484 19.1035 121.827 19.0245 122.143 18.9451V17.1264C121.985 17.1525 121.827 17.1525 121.669 17.1525C121.089 17.1525 120.825 16.8889 120.825 16.3089V9.34979C120.825 6.71369 119.138 4.97359 116.08 4.97359C113.761 4.97359 111.652 6.08089 110.255 7.82096L111.862 9.19141C113.075 7.76813 114.472 7.00345 115.79 7.00345C117.82 7.00345 118.348 8.16357 118.348 9.53442V10.1406L115.606 10.7731C111.599 11.6957 110.255 13.383 110.255 15.5181C110.255 17.4953 111.599 19.2882 114.525 19.2882ZM107.618 17.1525C106.564 17.1525 106.09 16.731 106.09 15.7555V7.21432H108.673V5.26386H106.09V1.4676H103.559V5.26386H101.292V7.21432H103.559V16.151C103.559 18.0752 104.64 19.1035 107.091 19.1035C107.592 19.1035 108.093 19.0245 108.673 18.9188V17.0997C108.251 17.1525 108.04 17.1525 107.618 17.1525ZM94.1483 19.2615C97.5754 19.2615 100.448 17.3899 100.448 14.0948C100.448 10.7731 98.2077 9.71864 94.3592 8.45336C92.0394 7.68917 90.2465 7.05621 90.2465 5.23722C90.2465 3.31289 91.7493 2.49585 93.5946 2.49585C95.5454 2.49585 97.1272 3.60316 97.9707 5.4218L100.053 4.34113C98.814 1.59942 96.3363 0.334173 93.5946 0.334173C90.3522 0.334173 87.637 2.17946 87.637 5.4218C87.637 8.48 89.8512 9.6924 93.3576 10.7997C95.8881 11.5905 97.8124 12.2495 97.8124 14.2794C97.8124 16.2565 96.1254 17.0997 94.1483 17.0997C91.9077 17.0997 90.0886 16.0192 89.1397 14.0948L87.0832 15.3073C88.3751 17.8644 91.0374 19.2615 94.1483 19.2615ZM70.0282 19.0245H72.5853V8.69074C73.666 7.53072 74.826 6.95069 76.0385 6.95069C77.2776 6.95069 78.1741 7.71532 78.1741 9.21797V19.0245H80.7312V9.32321C80.7312 6.47635 79.1496 4.97359 76.6976 4.97359C75.2476 4.97359 73.8505 5.47457 72.5853 6.68705V5.26386H70.0282V19.0245ZM58.3764 15.4391C58.3764 14.1476 59.1149 13.225 61.4875 12.6183L63.9652 12.0121V15.9929C62.9373 16.8628 61.7772 17.469 60.5911 17.469C59.0883 17.469 58.3764 16.5201 58.3764 15.4391ZM60.1428 19.2882C61.5136 19.2882 62.9634 18.6024 64.1235 17.6269C64.4923 18.629 65.3623 19.1035 66.7597 19.1035C67.1022 19.1035 67.4449 19.0245 67.7613 18.9451V17.1264C67.6029 17.1525 67.4449 17.1525 67.287 17.1525C66.7069 17.1525 66.4433 16.8889 66.4433 16.3089V9.34979C66.4433 6.71369 64.756 4.97359 61.6982 4.97359C59.3786 4.97359 57.2696 6.08089 55.8722 7.82096L57.4805 9.19141C58.6928 7.76813 60.0899 7.00345 61.4081 7.00345C63.4379 7.00345 63.9652 8.16357 63.9652 9.53442V10.1406L61.2238 10.7731C57.2169 11.6957 55.8722 13.383 55.8722 15.5181C55.8722 17.4953 57.2169 19.2882 60.1428 19.2882ZM44.2209 12.1705C44.2209 8.37437 45.8025 6.95069 47.6478 6.95069C48.9397 6.95069 49.7828 7.42554 50.8901 8.40055V15.9401C49.7828 16.8889 48.913 17.3372 47.6478 17.3634C45.8025 17.3634 44.2209 15.9401 44.2209 12.1705ZM47.2786 19.2615C48.7812 19.2615 49.8622 18.6815 50.8901 17.8117V18.8133C50.8901 21.1595 50.0731 22.5833 47.4103 22.5833C45.908 22.5833 44.59 22.0293 43.4562 21.2913L42.4283 23.2684C43.509 23.9803 45.565 24.6655 47.5421 24.6655C51.1804 24.6655 53.4734 22.5833 53.4734 19.1825V5.26386H50.9692V6.39729C49.9413 5.55362 48.8603 5.00022 47.3314 5.00022C44.3527 5.00022 41.6904 7.03008 41.6904 12.1439C41.6904 17.2844 44.3527 19.2615 47.2786 19.2615ZM34.1774 19.0245H36.7079V9.74521C37.9998 7.74149 39.186 7.18803 40.3985 7.18803C40.7149 7.18803 41.0051 7.21432 41.2158 7.29372V4.94729C41.0313 4.89453 40.7415 4.84177 40.3985 4.84177C39.1332 4.84177 37.6832 5.76433 36.7079 7.47796V5.26386H34.1774V19.0245ZM21.946 12.1705C21.946 8.559 23.4219 6.92439 25.4781 6.92439C27.5609 6.92439 29.0107 8.559 29.0107 12.1705C29.0107 15.7817 27.5609 17.3899 25.4781 17.3899C23.4219 17.3899 21.946 15.7817 21.946 12.1705ZM25.4781 5.00022C21.8142 5.00022 19.415 7.55736 19.415 12.1705C19.415 16.7838 21.8142 19.3143 25.4781 19.3143C29.1425 19.3143 31.5412 16.7838 31.5412 12.1705C31.5412 7.55736 29.1425 5.00022 25.4781 5.00022ZM0.0927124 19.0245H2.51765L2.49141 2.62767L7.36823 19.0245H9.26633L14.1432 2.68043V19.0245H16.7265V0.571684H12.4559L8.39655 14.3846L4.36292 0.571684H0.0927124V19.0245Z" fill="#163300"/>
</svg>
