<svg xmlns="http://www.w3.org/2000/svg" width="64" height="45" fill="none"><path fill="#163300" fill-rule="evenodd" d="M0 3.282h19.828V0H0v3.282ZM55.827 32.38c-2.903 0-4.913-2.749-5.26-6.391.88-3.11 2.836-4.658 5.148-4.658 2.972 0 4.65 2.259 4.65 5.47 0 3.447-1.911 5.579-4.538 5.579Zm.728-14.06c-2.932 0-5.03 1.398-6.088 3.465 0-4.884 1.655-9.14 5.585-9.14 2.5 0 3.491 1.48 4.02 3.906l3.64-.749c-.856-4.189-3.442-6.225-7.634-6.225-5.266 0-9.207 4.162-9.207 13.49 0 8.28 3.286 12.372 8.948 12.372 4.677 0 8.181-3.287 8.181-8.705 0-4.232-2.192-8.413-7.445-8.413ZM16.11 9.846V27.17h-.002c0 1.534.035 2.461.104 3.353h-.07c-.363-1.021-.793-1.916-1.433-3.08l-9.956-17.6H.203v25.328h3.545V17.845h.002c0-1.534-.035-2.46-.104-3.353h.07c.363 1.021.793 1.916 1.434 3.08l9.956 17.6h4.503V9.845h-3.5ZM19.828 45H0v-3.265h19.828V45Zm16.64-17.829c-1.179 1.213-3.835 3.403-5.688 4.72h11.117v3.281h-16.36v-2.996c1.896-1.394 5.834-4.42 8.298-6.957 2.358-2.427 3.902-4.646 3.902-7.901 0-3.203-1.71-4.535-4.02-4.535-2.368 0-4.26 1.409-4.26 4.35 0 .643.069 1.356.242 2.177l-3.716-.37a8.289 8.289 0 0 1-.243-1.998c0-3.93 2.677-7.365 8.1-7.365 4.472 0 7.78 2.392 7.78 7.616 0 4.752-3.37 8.17-4.887 9.707l-.265.271Z" clip-rule="evenodd"/></svg>